<svg xmlns="http://www.w3.org/2000/svg" xmlns:xlink="http://www.w3.org/1999/xlink" width="305pt" height="188pt" viewBox="0.00 0.00 305.00 188.00">
<g id="graph0" class="graph" transform="scale(1 1) rotate(0) translate(4 184)">
<polygon fill="white" stroke="none" points="-4,4 -4,-184 300.7,-184 300.7,4 -4,4"/>
<!-- Duration -->
<g id="node1" class="node">
<title>Duration</title>
<ellipse fill="none" stroke="black" cx="251.33" cy="-18" rx="45.36" ry="18"/>
<text xml:space="preserve" text-anchor="middle" x="251.33" y="-13.8" font-family="Times,serif" font-size="14.00">Duration</text>
</g>
<!-- Job -->
<g id="node2" class="node">
<title>Job</title>
<ellipse fill="none" stroke="black" cx="138.33" cy="-90" rx="27" ry="18"/>
<text xml:space="preserve" text-anchor="middle" x="138.33" y="-85.8" font-family="Times,serif" font-size="14.00">Job</text>
</g>
<!-- Job&#45;&gt;Duration -->
<g id="edge1" class="edge">
<title>Job-&gt;Duration</title>
<path fill="none" stroke="black" d="M157.76,-76.97C174.2,-66.78 198.15,-51.95 217.7,-39.84"/>
<polygon fill="black" stroke="black" points="219.51,-42.83 226.17,-34.59 215.83,-36.88 219.51,-42.83"/>
</g>
<!-- CheckingAccount -->
<g id="node5" class="node">
<title>CheckingAccount</title>
<ellipse fill="none" stroke="black" cx="107.33" cy="-18" rx="80.76" ry="18"/>
<text xml:space="preserve" text-anchor="middle" x="107.33" y="-13.8" font-family="Times,serif" font-size="14.00">CheckingAccount</text>
</g>
<!-- Job&#45;&gt;CheckingAccount -->
<g id="edge2" class="edge">
<title>Job-&gt;CheckingAccount</title>
<path fill="none" stroke="black" d="M130.99,-72.41C127.53,-64.59 123.3,-55.06 119.39,-46.23"/>
<polygon fill="black" stroke="black" points="122.71,-45.07 115.46,-37.34 116.31,-47.9 122.71,-45.07"/>
</g>
<!-- SavingAccounts -->
<g id="node3" class="node">
<title>SavingAccounts</title>
<ellipse fill="none" stroke="black" cx="74.33" cy="-162" rx="74.33" ry="18"/>
<text xml:space="preserve" text-anchor="middle" x="74.33" y="-157.8" font-family="Times,serif" font-size="14.00">SavingAccounts</text>
</g>
<!-- SavingAccounts&#45;&gt;Job -->
<g id="edge3" class="edge">
<title>SavingAccounts-&gt;Job</title>
<path fill="none" stroke="black" d="M89.83,-144.05C97.98,-135.13 108.11,-124.06 117,-114.33"/>
<polygon fill="black" stroke="black" points="119.54,-116.75 123.7,-107.01 114.37,-112.02 119.54,-116.75"/>
</g>
<!-- SavingAccounts&#45;&gt;CheckingAccount -->
<g id="edge4" class="edge">
<title>SavingAccounts-&gt;CheckingAccount</title>
<path fill="none" stroke="black" d="M78.38,-143.59C83.98,-119.5 94.15,-75.75 100.82,-47.03"/>
<polygon fill="black" stroke="black" points="104.16,-48.12 103.02,-37.59 97.34,-46.53 104.16,-48.12"/>
</g>
<!-- Housing -->
<g id="node4" class="node">
<title>Housing</title>
<ellipse fill="none" stroke="black" cx="210.33" cy="-162" rx="43.77" ry="18"/>
<text xml:space="preserve" text-anchor="middle" x="210.33" y="-157.8" font-family="Times,serif" font-size="14.00">Housing</text>
</g>
<!-- Housing&#45;&gt;Job -->
<g id="edge6" class="edge">
<title>Housing-&gt;Job</title>
<path fill="none" stroke="black" d="M194,-145.12C184.31,-135.69 171.87,-123.61 161.22,-113.25"/>
<polygon fill="black" stroke="black" points="163.83,-110.91 154.22,-106.45 158.95,-115.93 163.83,-110.91"/>
</g>
<!-- Housing&#45;&gt;CheckingAccount -->
<g id="edge5" class="edge">
<title>Housing-&gt;CheckingAccount</title>
<path fill="none" stroke="black" d="M206.17,-143.6C201.01,-124.62 190.82,-94.01 174.33,-72 165.79,-60.59 154.22,-50.28 143.1,-41.85"/>
<polygon fill="black" stroke="black" points="145.32,-39.14 135.17,-36.12 141.22,-44.81 145.32,-39.14"/>
</g>
</g>
</svg>